<svg width="20" height="20" viewBox="0 0 20 20" fill="none" xmlns="http://www.w3.org/2000/svg">
<path d="M9.16667 15.8333C12.8486 15.8333 15.8333 12.8486 15.8333 9.16667C15.8333 5.48477 12.8486 2.5 9.16667 2.5C5.48477 2.5 2.5 5.48477 2.5 9.16667C2.5 12.8486 5.48477 15.8333 9.16667 15.8333Z" stroke="#444444" stroke-width="2" stroke-linecap="round" stroke-linejoin="round"/>
<path d="M16.7929 18.2071C17.1834 18.5976 17.8166 18.5976 18.2071 18.2071C18.5976 17.8166 18.5976 17.1834 18.2071 16.7929L16.7929 18.2071ZM14.5821 13.1679C14.1916 12.7774 13.5584 12.7774 13.1679 13.1679C12.7774 13.5584 12.7774 14.1916 13.1679 14.5821L14.5821 13.1679ZM18.2071 16.7929L14.5821 13.1679L13.1679 14.5821L16.7929 18.2071L18.2071 16.7929Z" fill="#444444"/>
</svg>
