<svg width="60" height="30" viewBox="0 0 60 30" fill="none" xmlns="http://www.w3.org/2000/svg">
<g clip-path="url(#clip0_3727_45532)">
<path d="M38.8477 10.457H46.8016V12.6239H41.5049V13.9945H46.4409V15.9901H41.5049V17.4035H46.8016V19.5926H38.8477V10.457Z" fill="black"/>
<path d="M7.11651 20.8853L5.09381 24.2086L3.08398 20.8853H0L3.77164 26.5928V30.0065H6.38699V26.5547L10.1457 20.8853H7.11651Z" fill="black"/>
<path d="M22.8322 20.8838L18.9688 30.0194H21.6099L22.2605 28.387H25.7857L26.4363 30.0194H29.1419L25.2656 20.8838H22.8322ZM24.0287 23.8645L25.0433 26.4311H23.0013L24.0287 23.8645Z" fill="black"/>
<path d="M13.2503 0H10.5898V9.13556H13.2503V0Z" fill="black"/>
<path d="M7.28239 0.0126953L5.10347 5.80749L2.94066 0.0126953H0L3.85216 9.14826H6.30163L10.1667 0.0126953H7.28239Z" fill="black"/>
<path d="M18.1802 9.13556C20.5153 9.13556 22.0645 8.06322 22.0645 6.25958V6.2342C22.0645 4.57968 20.6924 3.92453 18.4958 3.48195C17.1495 3.20435 16.8194 3.02668 16.8194 2.62376V2.59838C16.8194 2.27001 17.135 2.03048 17.7808 2.03048C18.6327 2.03048 19.5941 2.32077 20.4734 2.90136L21.8053 1.17228C20.7617 0.402923 19.4862 0 17.8516 0C15.5439 0 14.1299 1.18497 14.1299 2.82522V2.8506C14.1299 4.65582 15.7082 5.18565 17.755 5.61554C19.074 5.90584 19.3896 6.09619 19.3896 6.47373V6.49911C19.3896 6.87824 19.0047 7.10509 18.2768 7.10509C17.164 7.10509 16.1204 6.73865 15.159 6.04543L13.6758 7.67298C14.8707 8.64381 16.4763 9.13556 18.1786 9.13556" fill="black"/>
<path d="M25.5977 0V2.21766H28.461V9.13556H31.1166V2.21766H33.9929V0H25.5977Z" fill="black"/>
<path d="M25.1623 0H22.5195V9.13556H25.1623V0Z" fill="black"/>
<path d="M19.4375 15.0368V15.0114C19.4375 12.4892 21.4296 10.4429 24.0868 10.4429C26.744 10.4429 28.712 12.4638 28.712 14.9861V15.0114C28.712 17.5337 26.7199 19.5784 24.0627 19.5784C21.4055 19.5784 19.4375 17.5575 19.4375 15.0352M26.2641 15.0352V15.0099C26.2641 13.7297 25.3784 12.6383 24.0627 12.6383C22.7469 12.6383 21.8725 13.717 21.8725 14.9845V15.0099C21.8725 16.2773 22.7695 17.3814 24.0868 17.3814C25.4042 17.3814 26.2641 16.3027 26.2641 15.0352Z" fill="black"/>
<path d="M10.6055 10.4556H13.2385V14.1628L16.3902 10.4556H19.4274L15.9586 14.3722L19.8784 19.5911H16.8137L14.1758 16.1996L13.2385 17.2164V19.5911H10.6055V10.4556Z" fill="black"/>
<path d="M19.429 10.4556H16.3918L13.2385 14.1628V10.4556H10.6055V17.0356C11.3946 17.3513 12.327 17.5305 13.2305 17.5305C13.2337 17.5305 13.2353 17.5305 13.2385 17.5305V17.2164L14.1758 16.198L15.0229 17.2862C15.8619 17.061 16.6366 16.6803 17.3145 16.1774L15.9586 14.3722L19.4274 10.4572L19.429 10.4556Z" fill="#A0C4BD"/>
<path d="M15.9698 14.3864L15.9586 14.3722L16.3547 13.9407C16.9345 13.184 17.1551 12.2433 17.1551 11.2186C17.1551 10.9584 17.1277 10.7046 17.0859 10.4556H16.3902L13.2385 14.1628V10.4556H10.6055V15.224C11.2255 15.5413 11.9405 15.7237 12.6862 15.7237C13.9471 15.7237 15.1469 15.2113 15.9698 14.3864Z" fill="#305EA3"/>
<path d="M13.2385 10.4556H10.6055V12.1656C10.9678 12.9429 11.7682 13.4854 12.6862 13.4854C12.8552 13.4854 13.0791 13.4648 13.2385 13.4299V10.4556Z" fill="#E9443A"/>
<path d="M51.1012 10.4619H53.5233L57.3835 19.5975H54.6893L54.0419 17.9652H50.5311L49.8838 19.5975H47.2539L51.1012 10.4619ZM53.3043 16.0077L52.293 13.4426L51.2703 16.0077H53.3043Z" fill="black"/>
<path d="M53.5241 10.4619H51.102L48.6719 16.2297C49.8282 17.2989 51.3597 17.9588 53.049 17.9652H53.0957C54.2714 17.9604 55.3713 17.6384 56.3231 17.0848L53.5257 10.4635L53.5241 10.4619ZM53.3035 16.0077H51.2695L52.2937 13.4426L53.3051 16.0077H53.3035Z" fill="#305EA3"/>
<path d="M51.4966 15.4396L52.2937 13.4425L53.1972 15.7379C54.0282 15.7141 54.8012 15.4555 55.4518 15.0224L53.5257 10.4634H51.1036L49.6172 13.9929C50.0971 14.637 50.7461 15.1414 51.4998 15.4396" fill="#A0C4BD"/>
<path d="M53.526 10.4615H51.1023L51.0105 10.6805C50.9412 10.8962 50.8945 11.1215 50.8945 11.361C50.8945 12.5793 51.8705 13.566 53.0735 13.566C53.658 13.566 54.1863 13.3296 54.5776 12.9505L53.526 10.46V10.4615Z" fill="#E9443A"/>
<path d="M10.5898 20.8838H18.5454V23.0507H13.2487V24.4197H18.183V26.4168H13.2487V27.8302H18.5454V30.0194H10.5898V20.8838Z" fill="black"/>
<path d="M29.5696 20.8839H33.8904C35.2835 20.8839 36.2465 21.2503 36.8585 21.8627C37.3931 22.3973 37.6653 23.0889 37.6653 23.9899V24.0153C37.6653 25.4239 36.9229 26.3519 35.7907 26.8342L37.9648 30.0179H35.0612L33.2253 27.2514H32.2285V30.0179H29.5664V20.8823L29.5696 20.8839ZM33.7874 25.2685C34.6328 25.2685 35.1417 24.8513 35.1417 24.185V24.1581C35.1417 23.4268 34.6071 23.0619 33.7745 23.0619H32.2317V25.2669H33.7874V25.2685Z" fill="black"/>
<path d="M55.6655 27.5572L54.6992 29.0531V29.4719H55.7347V30.016H56.2533V29.4719H56.5464V29.0944H56.2533V27.5557H55.6655V27.5572ZM55.7396 28.0379H55.746C55.7428 28.2362 55.7347 28.7137 55.7347 29.0944H55.0793L55.7379 28.0379H55.7396Z" fill="black"/>
<path d="M48.4429 28.7695H47V28.9155H48.4429V28.7695Z" fill="black"/>
<path d="M40.6385 28.3333C40.6385 27.8527 40.2455 27.5576 39.7398 27.5576C39.2036 27.5576 38.8783 27.8701 38.8783 28.4269H39.3807V28.4063C39.3807 28.1049 39.4951 27.9669 39.7576 27.9669C39.9862 27.9669 40.1199 28.1334 40.1199 28.3175C40.1199 28.4666 40.0539 28.5951 39.9283 28.7013C39.5691 29.0091 39.0924 29.1899 38.9153 29.6404C38.8783 29.734 38.8557 29.8625 38.8477 30.018H40.6417V29.5881H39.5015C39.5305 29.4913 39.9122 29.2486 40.0941 29.1344C40.6127 28.8124 40.6385 28.5046 40.6385 28.3333Z" fill="black"/>
<path d="M42.6401 28.7854C42.6401 27.9447 42.3486 27.5576 41.7302 27.5576C41.1118 27.5576 40.8203 27.9463 40.8203 28.7854C40.8203 29.6246 41.1118 30.0164 41.7302 30.0164C42.3486 30.0164 42.6401 29.6246 42.6401 28.7854ZM41.7302 29.6389C41.4677 29.6389 41.3534 29.4739 41.3534 28.7854C41.3534 28.097 41.4677 27.9352 41.727 27.9352C41.9863 27.9352 42.1087 28.0938 42.1087 28.7886C42.1087 29.4834 41.9911 29.6389 41.7318 29.6389" fill="black"/>
<path d="M44.6072 28.3333C44.6072 27.8527 44.2143 27.5576 43.7086 27.5576C43.1723 27.5576 42.847 27.8701 42.847 28.4269H43.3495V28.4063C43.3495 28.1049 43.4638 27.9669 43.7263 27.9669C43.955 27.9669 44.0886 28.1334 44.0886 28.3175C44.0886 28.4666 44.0226 28.5951 43.897 28.7013C43.5379 29.0091 43.0612 29.1899 42.8824 29.6404C42.8454 29.734 42.8228 29.8625 42.8164 30.018H44.6104V29.5881H43.4702C43.4992 29.4913 43.8809 29.2486 44.0629 29.1344C44.5814 28.8124 44.6072 28.5046 44.6072 28.3333Z" fill="black"/>
<path d="M46.5194 28.2223C46.5194 27.7972 46.1602 27.5576 45.7013 27.5576C45.1795 27.5576 44.8397 27.8178 44.8364 28.327H45.318V28.3127C45.318 28.07 45.4404 27.9352 45.6739 27.9352C45.8848 27.9352 46.0024 28.0605 46.0024 28.2461C46.0024 28.4586 45.8768 28.5665 45.5724 28.5665H45.479V28.9044H45.5386C45.8897 28.9044 46.0684 29.0123 46.0684 29.2455C46.0684 29.512 45.8832 29.6404 45.6803 29.6404C45.4323 29.6404 45.2954 29.4913 45.2954 29.2185H44.793C44.793 29.7642 45.1521 30.018 45.7061 30.018C46.2279 30.018 46.6015 29.6976 46.6015 29.2455C46.6015 28.9647 46.4565 28.7696 46.2053 28.6887V28.6823C46.4018 28.5982 46.5194 28.4285 46.5194 28.2239" fill="black"/>
<path d="M50.5486 28.3333C50.5486 27.8527 50.1557 27.5576 49.65 27.5576C49.1137 27.5576 48.7884 27.8701 48.7884 28.4269H49.2909V28.4063C49.2909 28.1049 49.4052 27.9669 49.6677 27.9669C49.8964 27.9669 50.0301 28.1334 50.0301 28.3175C50.0301 28.4666 49.964 28.5951 49.8384 28.7013C49.4793 29.0091 49.0026 29.1899 48.8255 29.6404C48.7884 29.734 48.7659 29.8625 48.7578 30.018H50.5518V29.5881H49.4116C49.4406 29.4913 49.8223 29.2486 50.0043 29.1344C50.5228 28.8124 50.5486 28.5046 50.5486 28.3333Z" fill="black"/>
<path d="M52.5503 28.7854C52.5503 27.9447 52.2588 27.5576 51.6404 27.5576C51.022 27.5576 50.7305 27.9463 50.7305 28.7854C50.7305 29.6246 51.022 30.0164 51.6404 30.0164C52.2588 30.0164 52.5503 29.6246 52.5503 28.7854ZM51.6404 29.6389C51.3779 29.6389 51.2635 29.4739 51.2635 28.7854C51.2635 28.097 51.3779 27.9352 51.6371 27.9352C51.8964 27.9352 52.0188 28.0938 52.0188 28.7886C52.0188 29.4834 51.9013 29.6389 51.642 29.6389" fill="black"/>
<path d="M54.5174 28.3333C54.5174 27.8527 54.1244 27.5576 53.6187 27.5576C53.0825 27.5576 52.7572 27.8701 52.7572 28.4269H53.2596V28.4063C53.2596 28.1049 53.374 27.9669 53.6365 27.9669C53.8651 27.9669 53.9988 28.1334 53.9988 28.3175C53.9988 28.4666 53.9328 28.5951 53.8072 28.7013C53.448 29.0091 52.9713 29.1899 52.7942 29.6404C52.7572 29.734 52.7346 29.8625 52.7266 30.018H54.5206V29.5881H53.3804C53.4094 29.4913 53.7911 29.2486 53.973 29.1344C54.4916 28.8124 54.5174 28.5046 54.5174 28.3333Z" fill="black"/>
<path d="M37.6699 13.5757V13.5503C37.6699 12.6493 37.3961 11.9577 36.863 11.4231C36.2511 10.8108 35.288 10.4443 33.895 10.4443H29.5742V19.5799H30.2055C30.1218 19.3562 30.0702 19.1167 30.0702 18.8629C30.0702 17.735 31.1138 16.8197 32.2363 16.8197V19.5815V16.815H33.2331L35.069 19.5815H37.9726L35.7986 16.3978C36.9307 15.9155 37.6731 14.9875 37.6731 13.5789M35.1479 13.7486C35.1479 14.4149 34.639 14.8321 33.7936 14.8321H32.2379V12.6271H33.7807C34.6133 12.6271 35.1479 12.992 35.1479 13.7232V13.7502V13.7486Z" fill="black"/>
<path d="M37.0653 15.4426C36.5564 14.7256 35.9009 14.126 35.1392 13.685C35.1392 13.6977 35.1424 13.7072 35.1424 13.7199V13.7469C35.1424 14.4115 34.6351 14.8303 33.788 14.8303H32.2324V12.8696C31.3305 12.8696 30.3417 13.0727 29.5703 13.428V19.5813H30.2016C30.1179 19.3576 30.0663 19.1181 30.0663 18.8643C30.0663 17.7364 31.1099 16.8211 32.2324 16.8211V19.5829V16.8164H33.2292L35.0651 19.5829H37.9687L35.7946 16.3992C36.3132 16.1771 36.7448 15.8582 37.0669 15.4458" fill="#E9443A"/>
<path d="M36.1489 19.0737C36.1489 16.8306 34.4644 15.0127 32.234 15.0127C31.2758 15.0127 30.2628 15.349 29.5703 15.909V19.5797H30.2016C30.1179 19.356 30.0663 19.1165 30.0663 18.8627C30.0663 17.7348 31.1099 16.8195 32.2324 16.8179V19.5797V16.8132H33.2292L35.0651 19.5797H36.1167C36.1377 19.4131 36.1522 19.245 36.1522 19.0737" fill="#A0C4BD"/>
<path d="M30.0664 18.8612C30.0664 19.115 30.1179 19.3545 30.2017 19.5782H32.2308V16.8164C31.11 16.818 30.0664 17.7317 30.0664 18.8612Z" fill="#305EA3"/>
<path d="M55.2554 10.4981L56.2088 3.8182C55.6645 3.67384 55.1201 3.53107 54.5742 3.38672C54.5662 3.5168 54.5452 3.64846 54.5098 3.78012C54.2264 4.82392 53.1361 5.44416 52.0764 5.16339C52.0023 5.14435 51.9363 5.11263 51.8671 5.08566L52.2681 4.10849L50.1922 9.17041C47.4351 8.55333 45.4285 8.30111 45.3464 8.60409C45.2385 8.99909 48.432 10.1825 52.4774 11.2516C56.5228 12.3192 59.8902 12.8649 59.9965 12.4715C60.0819 12.159 58.0946 11.35 55.2554 10.4966" fill="black"/>
<path d="M51.8672 5.08718C51.9364 5.11415 52.0025 5.14588 52.0765 5.16491C53.1362 5.4441 54.2265 4.82544 54.5099 3.78165C54.5453 3.64999 54.5663 3.51832 54.5743 3.38825C53.9704 3.22803 53.3649 3.0694 52.761 2.90918L51.8672 5.08718Z" fill="#A0C4BD"/>
<path d="M52.2038 4.69549C53.0009 4.90647 53.819 4.44009 54.0332 3.65487C54.0687 3.52162 54.0799 3.38837 54.0783 3.25512C53.6387 3.13932 53.2006 3.02352 52.761 2.90771L52.0508 4.63679C52.1023 4.65583 52.1506 4.67962 52.2038 4.6939" fill="#305EA3"/>
<path d="M52.3411 4.19104C52.8548 4.32588 53.3831 4.02606 53.5199 3.52003C53.557 3.38202 53.5602 3.2456 53.5361 3.11235C53.2768 3.04414 53.0175 2.97593 52.7582 2.90771L52.2461 4.15456C52.2767 4.16566 52.3057 4.18152 52.3395 4.18945" fill="#E9443A"/>
</g>
<defs>
<clipPath id="clip0_3727_45532">
<rect width="60" height="30" fill="white"/>
</clipPath>
</defs>
</svg>
