<svg width="80" height="80" viewBox="0 0 80 80" fill="none" xmlns="http://www.w3.org/2000/svg">
<path d="M25.0306 43.3851H25.803L30.9743 30.8135H30.0513L25.4338 42.2988L20.8334 30.8135H19.8594L25.0306 43.3851Z" fill="#00398A"/>
<path d="M34.0163 30.8135H33.1055V43.3875H34.0163V30.8135Z" fill="#00398A"/>
<path d="M41.3001 43.3846C43.7849 43.3846 45.5702 42.0249 45.5702 40.0501V40.0159C45.5702 38.2339 44.3217 37.2208 41.3365 36.6447C38.2784 36.0516 37.5789 35.2655 37.5789 33.9718V33.9376C37.5789 32.6633 38.8322 31.6332 40.7293 31.6332C42.1478 31.6332 43.3623 32.0164 44.5792 33.0124L45.1864 32.2972C43.8796 31.3012 42.6457 30.8154 40.7681 30.8154C38.3732 30.8154 36.6267 32.2117 36.6267 34.0279V34.0621C36.6267 35.9149 37.8752 36.9108 40.9697 37.504C43.8991 38.063 44.6156 38.8149 44.6156 40.1062V40.1404C44.6156 41.5367 43.2894 42.5693 41.3559 42.5693C39.4225 42.5693 38.1521 41.9932 36.736 40.7531L36.1094 41.4341C37.6542 42.7426 39.2379 43.3895 41.3001 43.3895" fill="#00398A"/>
<path d="M48.5788 30.8135H47.668V43.3875H48.5788V30.8135Z" fill="#00398A"/>
<path d="M54.98 43.3851H55.8909V31.6727H60.1756V30.8135H50.6953V31.6727H54.98V43.3851Z" fill="#00398A"/>
<path d="M47.6289 45.4941H60.1454V48.9727H51.8116V51.1721H59.577V54.3772H51.8116V56.645H60.1454V60.1577H47.6289V45.4941Z" fill="#00AB86"/>
<path d="M17.0938 52.8438V52.8047C17.0938 48.7549 20.2295 45.4717 24.4098 45.4717C28.59 45.4717 31.687 48.7159 31.687 52.7632V52.8047C31.687 56.8545 28.5536 60.1377 24.3709 60.1377C20.1882 60.1377 17.0938 56.896 17.0938 52.8462M27.8346 52.8462V52.8071C27.8346 50.7517 26.4404 48.999 24.3709 48.999C22.3014 48.999 20.9267 50.7322 20.9267 52.7656V52.8071C20.9267 54.8406 22.3403 56.6128 24.4098 56.6128C26.4793 56.6128 27.8346 54.8796 27.8346 52.8462Z" fill="#00AB86"/>
<path d="M3.19922 45.4912H7.3406V51.4426L12.3005 45.4912H17.0807L11.6204 51.777L17.7876 60.1572H12.9661L8.81741 54.7087L7.3406 56.3443V60.1572H3.19922V45.4912Z" fill="#E62E8B"/>
<path d="M17.0807 45.4912H12.303L7.34303 51.4426V45.4912H3.19922V56.0538C4.44042 56.5615 5.90751 56.8471 7.32846 56.8471C7.33331 56.8471 7.33574 56.8471 7.3406 56.8471V56.3443L8.81498 54.7112L10.1461 56.459C11.4674 56.0953 12.6843 55.485 13.7531 54.677L11.6204 51.777L17.0783 45.4912H17.0807Z" fill="#00AB86"/>
<path d="M11.6399 51.8014L11.6229 51.777L12.2471 51.0862C13.1604 49.8705 13.5077 48.3619 13.5077 46.7166C13.5077 46.2992 13.464 45.8915 13.3984 45.4912H12.3054L7.34546 51.4426V45.4912H3.19922V53.1465C4.17566 53.6542 5.30027 53.9471 6.47346 53.9471C8.45792 53.9471 10.3452 53.1245 11.6399 51.8014Z" fill="#FABF13"/>
<path d="M7.3406 45.4917H3.19922V48.2355C3.7676 49.4829 5.02823 50.3543 6.47346 50.3543C6.74065 50.3543 7.09042 50.3202 7.3406 50.264V45.4893V45.4917Z" fill="#00398A"/>
<path d="M66.9148 45.4551H70.7258L76.8007 60.1187H72.5597L71.5395 57.497H66.0161L64.9959 60.1187H60.8594L66.9123 45.4551H66.9148ZM70.3809 54.3577L68.7899 50.2396L67.1795 54.3577H70.3809Z" fill="#E62E8B"/>
<path d="M70.7241 45.4551H66.913L63.0898 54.7141C64.9091 56.4326 67.3187 57.4896 69.976 57.4994H70.0488C71.8997 57.4921 73.6291 56.9746 75.1253 56.086L70.7241 45.4575V45.4551ZM70.3767 54.3577H67.1754L68.7858 50.2396L70.3767 54.3577Z" fill="#00AB86"/>
<path d="M67.5351 53.4447L68.7885 50.2396L70.2094 53.9232C71.5186 53.8841 72.7331 53.4692 73.7557 52.7735L70.7244 45.4551H66.9133L64.5742 51.1208C65.3296 52.1534 66.3498 52.9663 67.5351 53.4447Z" fill="#FABF13"/>
<path d="M70.7249 45.4551H66.9138L66.7681 45.8066C66.6588 46.1532 66.5859 46.5145 66.5859 46.9002C66.5859 48.8555 68.121 50.4398 70.0156 50.4398C70.9362 50.4398 71.7669 50.0614 72.3814 49.4536L70.7273 45.4575L70.7249 45.4551Z" fill="#00398A"/>
<path d="M33.5042 0.799805L32.5156 8.83585C32.7658 8.86515 33.0184 8.88223 33.2759 8.88223C36.9922 8.88223 40.0065 5.87482 40.0065 2.16437C40.0065 1.69568 39.958 1.24164 39.8681 0.799805H33.5066H33.5042Z" fill="#E62E8B"/>
<path d="M33.5072 0.800293L32.7227 7.18129C32.9048 7.20082 33.0919 7.21302 33.2789 7.21302C36.0722 7.21302 38.3384 4.95258 38.3384 2.16242C38.3384 1.68885 38.268 1.23236 38.1465 0.797852H33.5096L33.5072 0.800293Z" fill="#00AB86"/>
<path d="M33.5049 0.799805L32.9414 5.3866C33.0531 5.39881 33.16 5.42078 33.2766 5.42078C35.0789 5.42078 36.5387 3.96345 36.5387 2.16437C36.5387 1.67615 36.4245 1.21723 36.2302 0.799805H33.5049Z" fill="#00398A"/>
<path d="M23.2845 73.3613H24.1128V68.9308L28.9052 62.2031H27.9141L23.7145 68.196L19.5294 62.2031H18.4922L23.2845 68.9454V73.3613Z" fill="#E62E8B"/>
<path d="M30.2891 73.3613H38.6058V72.5997H31.1125V68.1154H37.8116V67.3538H31.1125V62.9672H38.5985V62.2031H30.2891V73.3613Z" fill="#E62E8B"/>
<path d="M29.3588 77.2601C29.3588 76.5742 28.8123 76.1543 28.103 76.1543C27.3549 76.1543 26.9007 76.5986 26.9007 77.3919H27.6026V77.3626C27.6026 76.933 27.7629 76.7353 28.1297 76.7353C28.4503 76.7353 28.6349 76.9721 28.6349 77.2333C28.6349 77.4456 28.5426 77.6287 28.3653 77.7801C27.865 78.2195 27.1994 78.4758 26.9517 79.1178C26.9007 79.252 26.8691 79.4327 26.8594 79.6548H29.3636V79.0421H27.7727C27.814 78.903 28.3459 78.5588 28.5985 78.3952C29.3223 77.9363 29.3563 77.4969 29.3563 77.2552" fill="#0E0000"/>
<path d="M32.1501 77.9021C32.1501 76.706 31.742 76.1543 30.8797 76.1543C30.0174 76.1543 29.6094 76.706 29.6094 77.9021C29.6094 79.0982 30.0174 79.6548 30.8797 79.6548C31.742 79.6548 32.1501 79.0982 32.1501 77.9021ZM30.8797 79.1178C30.5129 79.1178 30.3526 78.8834 30.3526 77.9021C30.3526 76.9208 30.5129 76.6913 30.8749 76.6913C31.2368 76.6913 31.4068 76.9184 31.4068 77.907C31.4068 78.8956 31.2416 79.1178 30.8797 79.1178Z" fill="#0E0000"/>
<path d="M34.9017 77.2601C34.9017 76.5742 34.3552 76.1543 33.646 76.1543C32.8979 76.1543 32.4436 76.5986 32.4436 77.3919H33.1456V77.3626C33.1456 76.933 33.3059 76.7353 33.6727 76.7353C33.9933 76.7353 34.1779 76.9721 34.1779 77.2333C34.1779 77.4456 34.0856 77.6287 33.9083 77.7801C33.4079 78.2195 32.7424 78.4758 32.4946 79.1178C32.4436 79.252 32.4121 79.4327 32.4023 79.6548H34.9066V79.0421H33.3156C33.3569 78.903 33.8889 78.5588 34.1415 78.3952C34.8653 77.9363 34.8993 77.4969 34.8993 77.2552" fill="#0E0000"/>
<path d="M37.5643 77.1014C37.5643 76.496 37.0639 76.1543 36.4227 76.1543C35.694 76.1543 35.2204 76.5253 35.2155 77.2503H35.8859V77.2308C35.8859 76.8842 36.0559 76.6913 36.3814 76.6913C36.6753 76.6913 36.8405 76.8695 36.8405 77.1332C36.8405 77.4359 36.6656 77.5897 36.2405 77.5897H36.1118V78.0705H36.1944C36.685 78.0705 36.9328 78.2243 36.9328 78.5563C36.9328 78.9347 36.6753 79.1178 36.3911 79.1178C36.0462 79.1178 35.8543 78.9054 35.8543 78.5173H35.1523C35.1523 79.296 35.6527 79.6548 36.4275 79.6548C37.1562 79.6548 37.6785 79.1983 37.6785 78.5539C37.6785 78.156 37.4769 77.8753 37.1247 77.7605V77.7508C37.3991 77.6312 37.5643 77.3919 37.5643 77.0966" fill="#0E0000"/>
<path d="M51.9418 76.1543L50.5938 78.2854V78.8834H52.039V79.6573H52.7604V78.8834H53.1685V78.3464H52.7604V76.1567H51.9394L51.9418 76.1543ZM52.0463 76.8402H52.056C52.0511 77.121 52.0414 77.802 52.0414 78.3439H51.1281L52.0463 76.8402Z" fill="#0E0000"/>
<path d="M44.7987 77.2601C44.7987 76.5742 44.2522 76.1543 43.5429 76.1543C42.7948 76.1543 42.3406 76.5986 42.3406 77.3919H43.0426V77.3626C43.0426 76.933 43.2029 76.7353 43.5696 76.7353C43.8903 76.7353 44.0749 76.9721 44.0749 77.2333C44.0749 77.4456 43.9826 77.6287 43.8053 77.7801C43.3049 78.2195 42.6394 78.4758 42.3916 79.1178C42.3406 79.252 42.309 79.4327 42.2969 79.6548H44.8011V79.0421H43.2102C43.2515 78.903 43.7834 78.5588 44.036 78.3952C44.7598 77.9363 44.7938 77.4969 44.7938 77.2552" fill="#0E0000"/>
<path d="M47.5915 77.9021C47.5915 76.706 47.1834 76.1543 46.3211 76.1543C45.4588 76.1543 45.0508 76.706 45.0508 77.9021C45.0508 79.0982 45.4588 79.6548 46.3211 79.6548C47.1834 79.6548 47.5915 79.0982 47.5915 77.9021ZM46.3211 79.1178C45.9544 79.1178 45.794 78.8834 45.794 77.9021C45.794 76.9208 45.9544 76.6913 46.3163 76.6913C46.6782 76.6913 46.8482 76.9184 46.8482 77.907C46.8482 78.8956 46.683 79.1178 46.3211 79.1178Z" fill="#0E0000"/>
<path d="M50.3417 77.2601C50.3417 76.5742 49.7952 76.1543 49.0859 76.1543C48.3378 76.1543 47.8836 76.5986 47.8836 77.3919H48.5855V77.3626C48.5855 76.933 48.7458 76.7353 49.1126 76.7353C49.4332 76.7353 49.6178 76.9721 49.6178 77.2333C49.6178 77.4456 49.5255 77.6287 49.3482 77.7801C48.8479 78.2195 48.1823 78.4758 47.9346 79.1178C47.8836 79.252 47.852 79.4327 47.8398 79.6548H50.3441V79.0421H48.7531C48.7944 78.903 49.3264 78.5588 49.579 78.3952C50.3028 77.9363 50.3368 77.4969 50.3368 77.2552" fill="#0E0000"/>
<path d="M41.0547 77.8477H38.9609V77.9673H41.0547V77.8477Z" fill="#0E0000"/>
<path d="M41.0547 77.8359H38.9609V77.98H41.0547V77.8359Z" fill="#0E0000"/>
<path d="M52.4892 73.3618H53.3102V68.736H56.9342L60.4635 73.3618H61.5055L57.85 68.5944C59.7178 68.3405 61.0926 67.2713 61.0926 65.4063V65.3746C61.0926 64.5763 60.7769 63.8269 60.2546 63.2997C59.5891 62.6308 58.4985 62.2012 57.1358 62.2012H52.4844V73.3618H52.4892ZM53.3102 67.989V62.9652H57.0945C59.1057 62.9652 60.2765 63.9075 60.2765 65.4063V65.4381C60.2765 67.0492 58.8993 67.989 57.0484 67.989H53.3127H53.3102Z" fill="#E62E8B"/>
<path d="M39.9805 73.3618H40.8355L42.2443 70.2592H48.7806L50.1894 73.3618H51.0905L45.9314 62.2012H45.1396L39.9805 73.3618ZM42.5916 69.5171L45.5185 63.1044L48.4308 69.5171H42.5916Z" fill="#E62E8B"/>
<path d="M45.779 50.5003V50.4588C45.779 49.0137 45.349 47.903 44.5086 47.0437C43.5468 46.06 42.0311 45.4717 39.8377 45.4717H33.0391V60.1353H34.0325C33.9013 59.7764 33.8188 59.3907 33.8188 58.9831C33.8188 57.1718 35.4632 55.7047 37.2266 55.7023V60.1353V55.6949H38.7933L41.6813 60.1353H46.2502L42.8302 55.0236C44.6131 54.2498 45.779 52.7608 45.779 50.4979M41.8052 50.7713C41.8052 51.8405 41.0061 52.5093 39.675 52.5093H37.2266V48.9698H39.6531C40.9648 48.9698 41.8052 49.5556 41.8052 50.7298V50.7713Z" fill="#00398A"/>
<path d="M44.8317 53.496C44.0325 52.3463 43.0002 51.3821 41.8003 50.6741C41.8003 50.6937 41.8052 50.7108 41.8052 50.7303V50.7718C41.8052 51.841 41.0061 52.5098 39.675 52.5098H37.2266V49.3633C35.8081 49.3633 34.2511 49.6904 33.0391 50.2592V60.1358H34.0325C33.9013 59.7769 33.8188 59.3913 33.8188 58.9836C33.8188 57.1723 35.4607 55.7052 37.2266 55.7028V60.1358V55.6955H38.7933L41.6813 60.1358H46.2502L42.8302 55.0242C43.6463 54.6678 44.3265 54.1551 44.8317 53.4936" fill="#FABF13"/>
<path d="M43.3889 59.3248C43.3889 55.7242 40.7389 52.8047 37.229 52.8047C35.7231 52.8047 34.1272 53.3442 33.0391 54.2449V60.1377H34.0325C33.9013 59.7789 33.8188 59.3932 33.8188 58.9855C33.8188 57.1742 35.4632 55.7071 37.2266 55.7047V60.1377V55.6949H38.7933L41.6813 60.1377H43.3354C43.367 59.8716 43.3913 59.6007 43.3913 59.3248" fill="#00AB86"/>
<path d="M33.8203 58.9859C33.8203 59.3936 33.9005 59.7792 34.0341 60.1381H37.2281V55.7051C35.4647 55.7051 33.8227 57.1746 33.8227 58.9859" fill="#E62E8B"/>
<path d="M48.4239 23.7851L45.5966 0.799805H33.5052H39.8667C39.9565 1.2392 40.0051 1.69568 40.0051 2.16193C40.0051 5.87238 36.9932 8.87979 33.2745 8.87979C33.017 8.87979 32.7644 8.86271 32.5142 8.83341L30.6706 23.8168C21.1005 24.1854 14.3164 25.1032 14.3164 26.1798C14.3164 27.5809 25.8175 28.716 40.0027 28.716C54.1878 28.716 65.6914 27.5809 65.6914 26.1798C65.6914 25.0715 58.4725 24.1292 48.4215 23.7826" fill="#0E0000"/>
</svg>
