<svg width="32" height="32" viewBox="0 0 32 32" fill="none" xmlns="http://www.w3.org/2000/svg">
<g opacity="0.5">
<path d="M24.0001 12.6667C24.0001 17.4533 19.5201 21.3333 14.0001 21.3333C12.3931 21.3434 10.8024 21.0116 9.33341 20.36L8.46675 20.7333L4.00008 22.6667L5.53342 17.3333C4.53046 15.9849 3.99238 14.3472 4.00008 12.6667C4.00008 7.88 8.48008 4 14.0001 4C18.8401 4 22.8801 6.98667 23.8001 10.9467C23.9346 11.5101 24.0017 12.0874 24.0001 12.6667Z" stroke="white" stroke-width="2" stroke-linecap="round" stroke-linejoin="round"/>
<path d="M23.8 10.9463C25.0476 11.6615 26.0896 12.6864 26.8254 13.9219C27.5611 15.1575 27.9657 16.562 28 17.9996C28.0077 19.6802 27.4696 21.3178 26.4667 22.6663L28 27.9996L22.6667 25.693C21.1977 26.3446 19.607 26.6764 18 26.6663C16.0075 26.7398 14.0388 26.2136 12.3486 25.1558C10.6585 24.098 9.32476 22.5572 8.52002 20.733" stroke="white" stroke-width="2" stroke-linecap="round" stroke-linejoin="round"/>
</g>
</svg>
