<svg width="139" height="46" viewBox="0 0 139 46" fill="none" xmlns="http://www.w3.org/2000/svg">
<path d="M50.8196 20.3351H53.4555C53.9303 20.3351 54.1677 20.5542 54.1677 21.0005C54.1677 21.4467 53.9303 21.6658 53.4555 21.6658H51.5072C52.0475 21.9174 52.4895 22.2825 52.8252 22.7613C53.169 23.2319 53.3327 23.7756 53.3327 24.3922C53.3327 25.3092 52.9725 26.08 52.244 26.721C51.5154 27.3621 50.6722 27.6866 49.7226 27.6866C48.7649 27.6866 47.9217 27.3783 47.1931 26.7697C46.4646 26.153 46.1044 25.3903 46.1044 24.4815C46.1044 23.8567 46.2845 23.2968 46.6365 22.81C46.9885 22.3231 47.4305 21.9417 47.9708 21.6739C47.979 21.6739 47.5288 21.6739 46.6201 21.6739C46.4236 21.6739 46.1044 21.5604 45.6705 21.3332C45.2366 21.106 45.0156 20.8544 45.0156 20.5866C45.0156 20.4649 45.0647 20.3919 45.1793 20.3675C45.2776 20.3432 45.3676 20.3351 45.4495 20.3351H48.7157V19.9456C48.7157 19.5967 48.5275 19.3695 48.1509 19.2478C47.7825 19.1261 47.5942 18.9638 47.5942 18.7447C47.5942 18.6473 47.627 18.5743 47.6925 18.5418C47.758 18.5094 47.848 18.4931 47.9544 18.4931L50.6477 18.7447C50.705 18.7447 50.7377 18.7609 50.7705 18.7853C50.8032 18.8177 50.8114 18.8583 50.8114 18.9151V20.3351H50.8196ZM51.1143 31.4679C51.1143 31.5572 51.1306 31.6221 51.1716 31.6545C51.2125 31.687 51.278 31.7032 51.3844 31.7032H56.9182C57.4012 31.7032 57.6468 31.9304 57.6468 32.3767C57.6468 32.823 57.4012 33.0421 56.9182 33.0421H50.7623C50.3202 33.0421 49.9191 32.9204 49.5589 32.6769C49.1987 32.4416 49.0186 32.0927 49.0186 31.6545V30.0317C49.0186 29.5773 48.8058 29.2933 48.3801 29.1878C47.9544 29.0823 47.7416 28.8957 47.7416 28.6279C47.7416 28.5062 47.7743 28.4332 47.848 28.4007C47.9217 28.3764 48.0117 28.3601 48.1345 28.3601H50.9587C51.0079 28.3601 51.057 28.3764 51.0815 28.4007C51.1061 28.4332 51.1225 28.4656 51.1225 28.5305V31.4679H51.1143ZM48.241 24.4572C48.241 24.9684 48.3556 25.4552 48.5848 25.9258C48.814 26.3884 49.1905 26.6156 49.7063 26.6156C50.2138 26.6156 50.5904 26.3884 50.8441 25.9421C51.0979 25.4877 51.2207 25.0089 51.2207 24.4977C51.2207 23.9703 51.0979 23.4834 50.8605 23.0209C50.6149 22.5665 50.2384 22.3393 49.7226 22.3393C49.2233 22.3393 48.8549 22.5665 48.6093 23.0128C48.3637 23.4672 48.241 23.9541 48.241 24.4572ZM57.0738 22.4935H58.5718C59.0876 22.4935 59.3495 22.7126 59.3495 23.1589C59.3495 23.6052 59.0876 23.8242 58.5718 23.8242H57.0738V28.1086C57.0738 28.6847 56.9673 29.058 56.7463 29.2121C56.5253 29.3744 56.2552 29.4475 55.9277 29.4475H55.1337C55.0927 29.4475 55.0518 29.4312 55.0191 29.3988C54.9863 29.3663 54.9699 29.3257 54.9699 29.2852V19.9618C54.9699 19.4019 54.7489 19.0855 54.315 18.9881C53.8812 18.8989 53.6683 18.7122 53.6683 18.4201C53.6683 18.2984 53.7175 18.2254 53.8239 18.201C53.9303 18.1686 54.0531 18.1523 54.1923 18.1523L56.9182 18.6635C56.9755 18.6635 57.0165 18.6798 57.041 18.7041C57.0738 18.7366 57.082 18.769 57.082 18.8258V22.4935H57.0738Z" fill="#767575"/>
<path d="M70.2205 23.8223L70.4825 20.3088C70.4825 20.2764 70.4825 20.252 70.4743 20.2358C70.4661 20.2196 70.4416 20.2033 70.3843 20.2033H64.2447C64.0646 20.2033 63.7371 20.0735 63.2542 19.822C62.7712 19.5623 62.5256 19.3351 62.5256 19.116C62.5256 18.9943 62.5747 18.9132 62.6648 18.8807C62.763 18.8483 62.8449 18.832 62.9185 18.832H72.1443C72.4226 18.832 72.6518 18.9132 72.8319 19.0917C73.012 19.2621 73.0939 19.4649 73.0693 19.7003C73.0284 20.1384 72.8565 20.7795 72.5618 21.6152C72.2752 22.4591 71.9805 23.1894 71.6777 23.8142H74.0844C74.5837 23.8142 74.8293 24.0414 74.8293 24.4877C74.8293 24.934 74.5837 25.1612 74.0844 25.1612H69.0499V27.6361H72.4963C72.5372 27.6361 72.5781 27.6523 72.6109 27.6766C72.6436 27.701 72.66 27.7497 72.66 27.8065V32.3018C72.66 32.7481 72.5863 33.0645 72.439 33.2674C72.2916 33.4621 72.0133 33.5595 71.6204 33.5595H70.6708C70.6298 33.5595 70.5889 33.5433 70.5562 33.5108C70.5234 33.4784 70.507 33.4378 70.507 33.3972V29.0155H64.302C64.0482 29.0155 63.7044 28.8857 63.2542 28.6341C62.8121 28.3745 62.5911 28.1473 62.5911 27.9444C62.5911 27.7983 62.6402 27.7091 62.7303 27.6847C62.8203 27.6604 62.9185 27.6442 63.0168 27.6442H66.6841V25.1693H62.5256C62.2391 25.1693 61.9035 25.0395 61.5187 24.7879C61.134 24.5364 60.9375 24.3254 60.9375 24.1631C60.9375 24.0333 60.9621 23.9359 61.0112 23.8954C61.0521 23.8467 61.134 23.8304 61.2568 23.8304H70.2205V23.8223Z" fill="#767575"/>
<path d="M86.8791 26.6399L78.4556 27.4919C78.2919 27.4919 77.9726 27.3702 77.5142 27.1105C77.0476 26.859 76.8184 26.6237 76.8184 26.4127C76.8184 26.2748 76.8511 26.1936 76.9166 26.1449C76.9821 26.1044 77.0885 26.08 77.2113 26.08L80.0191 25.9421V24.5058C80.0191 23.9865 79.8227 23.6782 79.4379 23.5727C79.0532 23.4591 78.8567 23.2887 78.8567 23.0534C78.8567 22.9641 78.8813 22.9073 78.9222 22.8911C78.9631 22.8668 79.0286 22.8586 79.1023 22.8586H81.8938C81.9511 22.8586 81.992 22.8749 82.0165 22.8992C82.0411 22.9236 82.0575 22.9641 82.0575 23.0209C82.0575 24.8953 82.0575 25.8366 82.0575 25.8447L86.8627 25.5932V19.9618C86.8627 19.4019 86.6499 19.0855 86.2078 18.9881C85.7822 18.8989 85.5611 18.7122 85.5611 18.4201C85.5611 18.2984 85.6102 18.2254 85.7167 18.201C85.8231 18.1686 85.9459 18.1523 86.0932 18.1523L88.8192 18.6635C88.8765 18.6635 88.9174 18.6798 88.942 18.7041C88.9747 18.7366 88.9829 18.769 88.9829 18.8258V22.2744H90.4892C91.0049 22.2744 91.2669 22.5016 91.2669 22.9479C91.2669 23.3942 91.0131 23.6133 90.4892 23.6133H88.9829V28.2303C88.9829 28.8064 88.8765 29.1797 88.6473 29.3339C88.4263 29.488 88.1561 29.5692 87.8205 29.5692H87.0264C86.9855 29.5692 86.9446 29.5529 86.9118 29.5205C86.8791 29.488 86.8627 29.4475 86.8627 29.4069V26.6399H86.8791ZM84.5706 24.2624C84.2841 24.7412 83.9976 24.9602 83.7111 24.9034C83.4164 24.8548 83.2936 24.6032 83.3345 24.1569C83.3591 23.735 83.3836 23.2319 83.4246 22.6477C83.4573 22.0634 83.4819 21.5441 83.4982 21.0978H78.9222C78.7339 21.0978 78.4392 20.9599 78.0463 20.6759C77.6452 20.3919 77.4487 20.1485 77.4487 19.9456C77.4487 19.8239 77.4733 19.7427 77.5306 19.7103C77.5879 19.6778 77.6533 19.6616 77.7434 19.6616H85.0618C85.5038 19.6616 85.774 19.9375 85.8886 20.4811C85.7822 21.1303 85.5939 21.8119 85.3401 22.5422C85.0782 23.2644 84.8244 23.8405 84.5706 24.2624ZM82.7042 31.4679C82.7042 31.5572 82.7206 31.6221 82.7615 31.6545C82.8024 31.687 82.8679 31.7032 82.9743 31.7032H88.8356C89.3186 31.7032 89.556 31.9304 89.556 32.3767C89.556 32.823 89.3186 33.0421 88.8356 33.0421H82.344C81.9019 33.0421 81.5008 32.9204 81.1406 32.6769C80.7804 32.4416 80.5922 32.0927 80.5922 31.6545V30.0479C80.5922 29.5935 80.3793 29.3095 79.9536 29.204C79.528 29.0985 79.3151 28.9119 79.3151 28.6441C79.3151 28.5224 79.3561 28.4494 79.4297 28.425C79.4952 28.3926 79.5935 28.3845 79.7162 28.3845H82.5405C82.5978 28.3845 82.6387 28.4007 82.6714 28.425C82.696 28.4494 82.7124 28.49 82.7124 28.5468V31.4679H82.7042Z" fill="#767575"/>
<path d="M103.151 25.8303L94.6618 26.6823C94.4244 26.7067 94.0806 26.5768 93.6467 26.3091C93.2128 26.0413 93 25.7979 93 25.595C93 25.4652 93.0327 25.3759 93.0982 25.3272C93.1637 25.2866 93.262 25.2623 93.3929 25.2623L96.299 25.1081V24.0452C96.299 23.534 96.1025 23.2175 95.7178 23.1039C95.333 22.9903 95.1366 22.8199 95.1366 22.5846C95.1366 22.4953 95.1611 22.4385 95.2021 22.4142C95.243 22.3898 95.3085 22.3817 95.3822 22.3817H98.1736C98.2309 22.3817 98.2719 22.3898 98.3046 22.4223C98.3373 22.4466 98.3455 22.4872 98.3455 22.544V25.0026L103.151 24.7673V19.8095C103.151 19.2496 102.93 18.9331 102.496 18.8358C102.062 18.7465 101.841 18.5599 101.841 18.2678C101.841 18.1461 101.89 18.073 101.997 18.0487C102.103 18.0162 102.226 18 102.365 18L105.091 18.5112C105.148 18.5112 105.189 18.5274 105.214 18.5518C105.238 18.5842 105.255 18.6167 105.255 18.6735V21.6596H106.761C107.277 21.6596 107.539 21.8786 107.539 22.3249C107.539 22.7712 107.277 22.9903 106.761 22.9903H105.255V25.8628C105.255 26.447 105.148 26.7878 104.927 26.8852C104.706 26.9825 104.428 27.0312 104.1 27.0312H103.314C103.265 27.0312 103.233 27.015 103.2 26.9825C103.167 26.9501 103.151 26.9095 103.151 26.8689V25.8303ZM100.867 23.5745C100.58 24.0533 100.286 24.2642 99.9827 24.2156C99.6799 24.1669 99.5489 23.9153 99.598 23.469C99.6144 23.0471 99.6389 22.5765 99.6635 22.0572C99.6881 21.5378 99.7044 21.0591 99.7126 20.6128H95.1038C94.8992 20.6128 94.5963 20.4911 94.2197 20.2477C93.835 19.9961 93.6385 19.7933 93.6385 19.631C93.6385 19.5093 93.6631 19.4281 93.7204 19.3957C93.7777 19.3632 93.8514 19.347 93.9332 19.347H101.317C101.759 19.347 102.029 19.6229 102.144 20.1665C102.037 20.8157 101.857 21.4405 101.612 22.0409C101.366 22.6414 101.121 23.1526 100.867 23.5745ZM100.932 26.7391C101.882 26.7391 102.75 27.0556 103.56 27.6966C104.362 28.3376 104.763 29.1491 104.763 30.1309C104.763 31.1127 104.362 31.9242 103.56 32.5652C102.75 33.2062 101.882 33.5227 100.932 33.5227C99.9991 33.5227 99.1232 33.2062 98.3046 32.5652C97.486 31.9242 97.0767 31.1127 97.0767 30.1309C97.0767 29.1491 97.486 28.3376 98.3046 27.6966C99.1232 27.0556 99.9909 26.7391 100.932 26.7391ZM99.246 30.1309C99.246 30.7314 99.4015 31.2344 99.7126 31.632C100.024 32.0296 100.425 32.2325 100.916 32.2325C101.432 32.2325 101.841 32.0296 102.136 31.632C102.43 31.2344 102.586 30.7314 102.586 30.1309C102.586 29.5304 102.43 29.0273 102.136 28.6135C101.841 28.2078 101.432 28.0049 100.916 28.0049C100.408 28.0049 100.007 28.2078 99.7044 28.6135C99.4015 29.0273 99.246 29.5304 99.246 30.1309Z" fill="#767575"/>
<path d="M114.213 24.9824V23.3757C114.213 23.0268 114.025 22.8077 113.632 22.7104C113.247 22.613 113.051 22.4345 113.051 22.1911C113.051 22.0693 113.092 22.0044 113.166 21.9882C113.239 21.9801 113.321 21.972 113.395 21.972H116.317C116.375 21.972 116.415 21.9882 116.44 22.0125C116.465 22.0369 116.481 22.0775 116.481 22.1343V24.9743H122.146C122.637 24.9743 122.891 25.2015 122.891 25.6477C122.891 26.094 122.645 26.3131 122.146 26.3131H110.603C110.317 26.3131 109.981 26.1914 109.596 25.9399C109.212 25.6883 109.023 25.4773 109.023 25.3069C109.023 25.1771 109.048 25.0879 109.089 25.0392C109.13 24.9905 109.212 24.9661 109.335 24.9661H114.213V24.9824ZM112.462 20.2112C112.257 20.2112 111.913 20.0813 111.447 19.8298C110.98 19.5701 110.743 19.3429 110.743 19.1238C110.743 19.0021 110.792 18.921 110.882 18.8885C110.98 18.8561 111.062 18.8398 111.135 18.8398H120.468C120.746 18.8398 120.959 18.9129 121.122 19.067C121.286 19.2212 121.344 19.4078 121.327 19.6432C121.286 20.0732 121.172 20.6656 120.992 21.4121C120.811 22.1586 120.541 22.8402 120.197 23.4569C119.927 23.9275 119.624 24.1547 119.281 24.1385C118.937 24.1304 118.798 23.8464 118.863 23.3027V20.3085C118.863 20.2761 118.863 20.2517 118.855 20.2355C118.855 20.2193 118.822 20.203 118.765 20.203H112.462V20.2112ZM115.982 26.8892C117.038 26.8892 117.963 27.2057 118.749 27.8386C119.534 28.4715 119.927 29.283 119.927 30.2486C119.927 31.2547 119.534 32.0743 118.749 32.7234C117.963 33.3726 117.038 33.6971 115.965 33.6971C114.893 33.6971 113.968 33.3726 113.182 32.7234C112.396 32.0824 112.003 31.2547 112.003 30.2486C112.003 29.283 112.412 28.4796 113.215 27.8386C114.025 27.2057 114.942 26.8892 115.982 26.8892ZM114.246 30.3135C114.246 30.8652 114.385 31.3683 114.655 31.839C114.934 32.3096 115.368 32.5449 115.965 32.5449C116.555 32.5449 116.997 32.3096 117.267 31.839C117.545 31.3683 117.676 30.8652 117.676 30.3135C117.676 29.8104 117.545 29.3073 117.267 28.8042C116.989 28.3011 116.555 28.0415 115.965 28.0415C115.392 28.0415 114.967 28.293 114.68 28.8042C114.385 29.3073 114.246 29.8104 114.246 30.3135Z" fill="#767575"/>
<path d="M129.374 24.5951C129.317 24.7087 129.252 24.8142 129.186 24.9197C129.121 25.0252 129.047 25.1388 128.973 25.2442C128.474 26.0151 127.876 26.786 127.156 27.5649C126.435 28.3358 125.723 28.9606 125.011 29.4475C124.7 29.6503 124.495 29.699 124.381 29.6016C124.274 29.4961 124.323 29.3176 124.528 29.058C124.888 28.6036 125.314 28.0356 125.781 27.3621C126.255 26.6886 126.706 25.9421 127.115 25.1306C127.434 24.5058 127.729 23.8242 127.991 23.094C128.253 22.3556 128.425 21.7308 128.49 21.2033C128.564 20.7246 128.4 20.4243 127.974 20.2945C127.557 20.1728 127.344 19.9862 127.344 19.7509C127.344 19.6373 127.385 19.5642 127.475 19.5318C127.557 19.4912 127.663 19.4669 127.786 19.4669L130.709 19.9781C130.93 19.9781 131.061 20.043 131.126 20.1566C131.183 20.2702 131.2 20.4 131.167 20.5461C131.069 20.9842 130.913 20.9924 130.709 21.5928C130.504 22.1933 130.25 22.8262 129.939 23.4834C130.258 23.9054 130.619 24.3111 131.028 24.7168C131.437 25.1063 131.748 25.3984 131.953 25.5932C132.207 25.8041 132.403 25.9177 132.551 25.9421C132.69 25.9664 132.804 26.0719 132.878 26.2585C133.083 26.7697 133.23 27.4189 133.328 28.1979C133.418 28.9768 133.295 29.4556 132.984 29.6179C132.706 29.7639 132.362 29.5124 131.961 28.8713C131.552 28.2303 131.175 27.6217 130.823 27.0375C130.586 26.6237 130.332 26.2099 130.07 25.7879C129.833 25.3579 129.595 24.9602 129.374 24.5951ZM136.75 23.3455H138.256C138.747 23.3455 139.001 23.5727 139.001 24.019C139.001 24.4653 138.747 24.6844 138.256 24.6844H136.75V31.8736C136.75 32.5552 136.644 32.9934 136.423 33.2206C136.202 33.4397 135.931 33.5452 135.596 33.5452H134.81C134.769 33.5452 134.728 33.529 134.687 33.4965C134.654 33.464 134.638 33.4235 134.638 33.3829V20.1647C134.638 19.5967 134.409 19.2397 133.942 19.0936C133.484 18.9475 133.255 18.7366 133.255 18.4607C133.255 18.339 133.304 18.2578 133.41 18.2173C133.516 18.1767 133.639 18.1523 133.787 18.1523L136.594 18.6635C136.652 18.6635 136.693 18.6798 136.717 18.7041C136.742 18.7366 136.758 18.769 136.758 18.8258V23.3455H136.75Z" fill="#767575"/>
<g filter="url(#filter0_i_792_2334)">
<path d="M20.1136 17.5586C12.1894 17.5586 5.77148 23.9283 5.77148 31.7749C5.77148 39.6295 12.1976 45.9992 20.1136 45.9992C28.0377 45.9992 34.4638 39.6295 34.4638 31.7749C34.4556 23.9283 28.0377 17.5586 20.1136 17.5586ZM20.1136 38.1527C16.528 38.1527 13.6875 35.3127 13.6875 31.7749C13.6875 28.2532 16.569 25.4051 20.1136 25.4051C23.6663 25.4051 26.5478 28.2614 26.5478 31.7749C26.5396 35.2965 23.6663 38.1527 20.1136 38.1527Z" fill="#EB83B2"/>
<path d="M6.41016 36.0042C8.2111 41.7573 13.5894 45.9361 19.9663 46.001C21.3989 42.2198 20.4657 39.2662 20.0073 38.1545C17.0603 38.1058 14.6044 36.0935 13.9004 33.3752C8.95604 32.653 7.08142 34.7303 6.41016 36.0042Z" fill="#E1002A"/>
<path d="M20.1211 45.9993C26.6291 45.9993 32.122 41.6906 33.8738 35.7996C33.399 35.0855 31.2706 32.4403 26.3344 33.3978C25.614 36.1323 23.1091 38.1527 20.1211 38.1527C20.0802 38.1527 20.0311 38.1527 19.9983 38.1527C20.2603 38.7857 21.4636 42.0557 19.9492 45.9993C20.0065 45.9993 20.0638 45.9993 20.1211 45.9993Z" fill="#FFF265"/>
<path d="M20.1132 17.5586C20.0968 17.5586 20.0886 17.5586 20.0723 17.5586V25.4051C20.0886 25.4051 20.105 25.4051 20.1132 25.4051C23.666 25.4051 26.5475 28.2614 26.5475 31.7749C26.5475 32.4159 26.4492 33.0245 26.2773 33.6006C26.3019 33.5276 26.3265 33.4626 26.3428 33.3896C31.2545 32.4402 33.3911 35.0693 33.8822 35.7914C34.2588 34.5175 34.4635 33.1705 34.4635 31.7749C34.4553 23.9283 28.0374 17.5586 20.1132 17.5586Z" fill="#F49C00"/>
</g>
<g filter="url(#filter1_i_792_2334)">
<path d="M20.4492 12.7407C23.6336 12.5784 26.2041 10.1198 26.5069 7.00391C25.0171 7.79911 23.3471 8.31031 21.5789 8.45637C21.4643 9.97374 21.0714 11.4181 20.4492 12.7407Z" fill="#FFF265"/>
<path d="M20.1136 0C19.8107 0 19.5078 0.0243429 19.2131 0.0649145C20.7276 2.13406 21.628 4.69007 21.628 7.44893C21.628 7.78973 21.6117 8.12242 21.5871 8.44699C23.3553 8.30093 25.0253 7.79785 26.5151 6.99453C26.5397 6.79167 26.5479 6.5807 26.5479 6.36973C26.5397 2.85624 23.6664 0 20.1136 0Z" fill="#F49C00"/>
<path d="M20.5147 8.4957C18.0016 8.4957 15.6604 7.76541 13.6875 6.50769C13.7612 9.96438 16.6099 12.7395 20.1136 12.7395C20.2282 12.7395 20.3428 12.7395 20.4492 12.7314C21.0632 11.4087 21.4643 9.96438 21.5789 8.43889C21.2269 8.47947 20.8749 8.4957 20.5147 8.4957Z" fill="#EB83B2"/>
<path d="M13.6875 6.37122C13.6875 6.41991 13.6875 6.46048 13.6875 6.50917C15.6604 7.75877 18.0016 8.49717 20.5147 8.49717C20.8749 8.49717 21.2351 8.48094 21.5871 8.44848C21.6117 8.1158 21.628 7.78311 21.628 7.45042C21.628 4.69156 20.7276 2.14367 19.2131 0.0664062C16.086 0.496464 13.6875 3.15796 13.6875 6.37122Z" fill="#E1002A"/>
</g>
<g filter="url(#filter2_i_792_2334)">
<path d="M36.0027 11.6992C34.9713 11.6992 34.0299 12.0644 33.2931 12.6811C31.7705 13.8252 30.0841 14.7746 28.2832 15.4967C29.945 16.8843 30.9519 18.6938 30.9519 20.6737C30.9519 21.7448 30.6572 22.7672 30.1251 23.7003C33.2849 22.6049 36.2074 21.0064 38.8024 18.994C39.6701 18.2313 40.2267 17.1196 40.2267 15.87C40.2267 13.5574 38.3357 11.6911 36.0027 11.6992Z" fill="#EB83B2"/>
<path d="M11.6325 15.3675C9.94612 14.6615 8.3662 13.7527 6.93363 12.6735C6.19688 12.0569 5.24729 11.6836 4.20766 11.6836C1.8828 11.6836 0 13.558 0 15.8625C0 17.3068 0.753122 18.5889 1.8828 19.3354C4.09305 20.9988 6.54889 22.362 9.18481 23.3763C9.3076 23.425 9.42221 23.4656 9.545 23.5061C9.07839 22.6217 8.81644 21.6642 8.81644 20.6661C8.81644 18.6376 9.88063 16.7713 11.6325 15.3675Z" fill="#F49C00"/>
<path d="M28.2911 15.4961C25.8189 16.486 23.1257 17.0378 20.2933 17.0622C20.4488 18.1982 20.5307 19.3747 20.5307 20.5675C20.5307 22.2229 20.3752 23.8376 20.0723 25.3793C20.0886 25.3793 20.105 25.3793 20.1214 25.3793C23.625 25.3793 26.9895 24.7789 30.1248 23.6997C30.6569 22.7665 30.9516 21.7441 30.9516 20.673C30.9516 18.6931 29.9447 16.8836 28.2911 15.4961Z" fill="#E1002A"/>
<path d="M11.6328 15.3672C9.88097 16.7791 8.80859 18.6373 8.80859 20.6739C8.80859 21.672 9.07055 22.6295 9.53716 23.5139C12.8198 24.7149 16.3726 25.3802 20.0727 25.3802C20.3674 23.8385 20.5311 22.2238 20.5311 20.5685C20.5311 19.3757 20.4492 18.2072 20.2937 17.0631C20.2446 17.0631 20.1873 17.0631 20.1382 17.0631C17.1175 17.0712 14.2524 16.4626 11.6328 15.3672Z" fill="#FFF265"/>
</g>
<defs>
<filter id="filter0_i_792_2334" x="5.77148" y="17.5586" width="28.6924" height="28.4425" filterUnits="userSpaceOnUse" color-interpolation-filters="sRGB">
<feFlood flood-opacity="0" result="BackgroundImageFix"/>
<feBlend mode="normal" in="SourceGraphic" in2="BackgroundImageFix" result="shape"/>
<feColorMatrix in="SourceAlpha" type="matrix" values="0 0 0 0 0 0 0 0 0 0 0 0 0 0 0 0 0 0 127 0" result="hardAlpha"/>
<feOffset/>
<feGaussianBlur stdDeviation="2"/>
<feComposite in2="hardAlpha" operator="arithmetic" k2="-1" k3="1"/>
<feColorMatrix type="matrix" values="0 0 0 0 0 0 0 0 0 0 0 0 0 0 0 0 0 0 0.4 0"/>
<feBlend mode="normal" in2="shape" result="effect1_innerShadow_792_2334"/>
</filter>
<filter id="filter1_i_792_2334" x="13.6875" y="0" width="12.8604" height="12.7407" filterUnits="userSpaceOnUse" color-interpolation-filters="sRGB">
<feFlood flood-opacity="0" result="BackgroundImageFix"/>
<feBlend mode="normal" in="SourceGraphic" in2="BackgroundImageFix" result="shape"/>
<feColorMatrix in="SourceAlpha" type="matrix" values="0 0 0 0 0 0 0 0 0 0 0 0 0 0 0 0 0 0 127 0" result="hardAlpha"/>
<feOffset/>
<feGaussianBlur stdDeviation="2"/>
<feComposite in2="hardAlpha" operator="arithmetic" k2="-1" k3="1"/>
<feColorMatrix type="matrix" values="0 0 0 0 0 0 0 0 0 0 0 0 0 0 0 0 0 0 0.4 0"/>
<feBlend mode="normal" in2="shape" result="effect1_innerShadow_792_2334"/>
</filter>
<filter id="filter2_i_792_2334" x="0" y="11.6836" width="40.2268" height="13.6967" filterUnits="userSpaceOnUse" color-interpolation-filters="sRGB">
<feFlood flood-opacity="0" result="BackgroundImageFix"/>
<feBlend mode="normal" in="SourceGraphic" in2="BackgroundImageFix" result="shape"/>
<feColorMatrix in="SourceAlpha" type="matrix" values="0 0 0 0 0 0 0 0 0 0 0 0 0 0 0 0 0 0 127 0" result="hardAlpha"/>
<feOffset/>
<feGaussianBlur stdDeviation="2"/>
<feComposite in2="hardAlpha" operator="arithmetic" k2="-1" k3="1"/>
<feColorMatrix type="matrix" values="0 0 0 0 0 0 0 0 0 0 0 0 0 0 0 0 0 0 0.4 0"/>
<feBlend mode="normal" in2="shape" result="effect1_innerShadow_792_2334"/>
</filter>
</defs>
</svg>
