<svg width="20" height="20" viewBox="0 0 20 20" fill="none" xmlns="http://www.w3.org/2000/svg">
<path d="M2.82276 18C2.612 18 2.40124 17.9198 2.2411 17.7585C1.91963 17.437 1.91963 16.9159 2.2411 16.5944L16.5948 2.2411C16.9162 1.91963 17.4374 1.91963 17.7589 2.2411C18.0804 2.56256 18.0804 3.08373 17.7589 3.40539L3.40543 17.7585C3.24409 17.9188 3.03333 18 2.82276 18Z" fill="#4A5677"/>
<path d="M17.1774 18C16.9667 18 16.7561 17.9198 16.5958 17.7585L2.2411 3.40539C1.91963 3.08373 1.91963 2.56256 2.2411 2.2411C2.56257 1.91963 3.08376 1.91963 3.40543 2.2411L17.7589 16.5944C18.0804 16.9159 18.0804 17.437 17.7589 17.7585C17.5976 17.9188 17.387 18 17.1774 18Z" fill="#4A5677"/>
</svg>
