<svg width="32" height="32" viewBox="0 0 32 32" fill="none" xmlns="http://www.w3.org/2000/svg">
<g opacity="0.5">
<path d="M28 16C28 18.3734 27.2962 20.6935 25.9776 22.6668C24.6591 24.6402 22.7849 26.1783 20.5922 27.0866C18.3995 27.9948 15.9867 28.2324 13.6589 27.7694C11.3311 27.3064 9.19295 26.1635 7.51472 24.4853C5.83649 22.8071 4.6936 20.6689 4.23058 18.3411C3.76756 16.0133 4.0052 13.6005 4.91345 11.4078C5.8217 9.21509 7.35977 7.34094 9.33316 6.02236C11.3066 4.70379 13.6266 4 16 4" stroke="white" stroke-width="2" stroke-linecap="round" stroke-linejoin="round"/>
<path d="M18.3737 17.4004L14.667 17.3337V13.6271L23.2403 5.05374C23.4901 4.8054 23.8281 4.66602 24.1803 4.66602C24.5326 4.66602 24.8705 4.8054 25.1203 5.05374L27.0137 6.94707C27.262 7.19689 27.4014 7.53483 27.4014 7.88707C27.4014 8.23932 27.262 8.57726 27.0137 8.82707L18.3737 17.4004Z" stroke="white" stroke-width="2" stroke-linecap="round" stroke-linejoin="round"/>
</g>
</svg>
